<mxfile host="app.diagrams.net" agent="Mozilla/5.0 (Windows NT 10.0; Win64; x64) AppleWebKit/537.36 (KHTML, like Gecko) Chrome/128.0.0.0 Safari/537.36 OPR/114.0.0.0" version="24.9.3">
  <diagram id="C5RBs43oDa-KdzZeNtuy" name="Page-1">
    <mxGraphModel dx="1441" dy="796" grid="1" gridSize="10" guides="1" tooltips="1" connect="1" arrows="1" fold="1" page="1" pageScale="1" pageWidth="827" pageHeight="1169" math="0" shadow="0">
      <root>
        <mxCell id="WIyWlLk6GJQsqaUBKTNV-0" />
        <mxCell id="WIyWlLk6GJQsqaUBKTNV-1" parent="WIyWlLk6GJQsqaUBKTNV-0" />
        <mxCell id="Br24ICafhy1wDNoyXPe8-2" value="" style="edgeStyle=orthogonalEdgeStyle;rounded=0;orthogonalLoop=1;jettySize=auto;html=1;" edge="1" parent="WIyWlLk6GJQsqaUBKTNV-1" source="Br24ICafhy1wDNoyXPe8-0" target="Br24ICafhy1wDNoyXPe8-1">
          <mxGeometry relative="1" as="geometry" />
        </mxCell>
        <mxCell id="Br24ICafhy1wDNoyXPe8-0" value="Start" style="ellipse;whiteSpace=wrap;html=1;" vertex="1" parent="WIyWlLk6GJQsqaUBKTNV-1">
          <mxGeometry x="340" y="40" width="120" height="80" as="geometry" />
        </mxCell>
        <mxCell id="Br24ICafhy1wDNoyXPe8-4" value="" style="edgeStyle=orthogonalEdgeStyle;rounded=0;orthogonalLoop=1;jettySize=auto;html=1;" edge="1" parent="WIyWlLk6GJQsqaUBKTNV-1" source="Br24ICafhy1wDNoyXPe8-1" target="Br24ICafhy1wDNoyXPe8-3">
          <mxGeometry relative="1" as="geometry" />
        </mxCell>
        <mxCell id="Br24ICafhy1wDNoyXPe8-1" value="R, r, h" style="shape=internalStorage;whiteSpace=wrap;html=1;backgroundOutline=1;dx=10;dy=10;" vertex="1" parent="WIyWlLk6GJQsqaUBKTNV-1">
          <mxGeometry x="360" y="160" width="80" height="60" as="geometry" />
        </mxCell>
        <mxCell id="Br24ICafhy1wDNoyXPe8-6" value="" style="edgeStyle=orthogonalEdgeStyle;rounded=0;orthogonalLoop=1;jettySize=auto;html=1;" edge="1" parent="WIyWlLk6GJQsqaUBKTNV-1" source="Br24ICafhy1wDNoyXPe8-3">
          <mxGeometry relative="1" as="geometry">
            <mxPoint x="400" y="360" as="targetPoint" />
          </mxGeometry>
        </mxCell>
        <mxCell id="Br24ICafhy1wDNoyXPe8-3" value="Input: R, r, h" style="shape=parallelogram;perimeter=parallelogramPerimeter;whiteSpace=wrap;html=1;fixedSize=1;" vertex="1" parent="WIyWlLk6GJQsqaUBKTNV-1">
          <mxGeometry x="340" y="260" width="120" height="60" as="geometry" />
        </mxCell>
        <mxCell id="Br24ICafhy1wDNoyXPe8-15" value="End" style="ellipse;whiteSpace=wrap;html=1;" vertex="1" parent="WIyWlLk6GJQsqaUBKTNV-1">
          <mxGeometry x="340" y="790" width="120" height="80" as="geometry" />
        </mxCell>
        <mxCell id="Br24ICafhy1wDNoyXPe8-21" value="" style="edgeStyle=orthogonalEdgeStyle;rounded=0;orthogonalLoop=1;jettySize=auto;html=1;" edge="1" parent="WIyWlLk6GJQsqaUBKTNV-1" source="Br24ICafhy1wDNoyXPe8-18" target="Br24ICafhy1wDNoyXPe8-20">
          <mxGeometry relative="1" as="geometry" />
        </mxCell>
        <mxCell id="Br24ICafhy1wDNoyXPe8-18" value="&lt;br&gt;&lt;div style=&quot;font-weight: normal; line-height: 22px; white-space: pre;&quot;&gt;&lt;div style=&quot;&quot;&gt;&lt;font style=&quot;&quot;&gt;l = sqrt(pow(h, 2.0) + (R - r))&lt;/font&gt;&lt;/div&gt;&lt;/div&gt;&lt;div&gt;&lt;br/&gt;&lt;/div&gt;" style="rounded=0;whiteSpace=wrap;html=1;" vertex="1" parent="WIyWlLk6GJQsqaUBKTNV-1">
          <mxGeometry x="292.5" y="360" width="215" height="60" as="geometry" />
        </mxCell>
        <mxCell id="Br24ICafhy1wDNoyXPe8-23" value="" style="edgeStyle=orthogonalEdgeStyle;rounded=0;orthogonalLoop=1;jettySize=auto;html=1;" edge="1" parent="WIyWlLk6GJQsqaUBKTNV-1" source="Br24ICafhy1wDNoyXPe8-20" target="Br24ICafhy1wDNoyXPe8-22">
          <mxGeometry relative="1" as="geometry" />
        </mxCell>
        <mxCell id="Br24ICafhy1wDNoyXPe8-20" value="&lt;div style=&quot;line-height: 22px; white-space: pre;&quot;&gt;&lt;font face=&quot;Helvetica&quot; style=&quot;&quot;&gt;S = M_PI*(R+r)*l + M_PI*pow(R, 2.0)&lt;/font&gt;&lt;/div&gt;&lt;div style=&quot;line-height: 22px; white-space: pre;&quot;&gt;&lt;font face=&quot;Helvetica&quot; style=&quot;&quot;&gt;+ M_PI*pow(r, 2.0)&lt;/font&gt;&lt;/div&gt;" style="rounded=0;whiteSpace=wrap;html=1;" vertex="1" parent="WIyWlLk6GJQsqaUBKTNV-1">
          <mxGeometry x="290" y="470" width="220" height="60" as="geometry" />
        </mxCell>
        <mxCell id="Br24ICafhy1wDNoyXPe8-25" value="" style="edgeStyle=orthogonalEdgeStyle;rounded=0;orthogonalLoop=1;jettySize=auto;html=1;" edge="1" parent="WIyWlLk6GJQsqaUBKTNV-1" source="Br24ICafhy1wDNoyXPe8-22" target="Br24ICafhy1wDNoyXPe8-24">
          <mxGeometry relative="1" as="geometry" />
        </mxCell>
        <mxCell id="Br24ICafhy1wDNoyXPe8-22" value="&lt;div style=&quot;font-family: Consolas, &amp;quot;Courier New&amp;quot;, monospace; line-height: 22px; white-space: pre;&quot;&gt;&lt;font style=&quot;&quot;&gt;V = (M_PI/3) * (pow(R, 2.0) +&lt;/font&gt;&lt;/div&gt;&lt;div style=&quot;font-family: Consolas, &amp;quot;Courier New&amp;quot;, monospace; line-height: 22px; white-space: pre;&quot;&gt;&lt;font style=&quot;&quot;&gt;pow(r, 2.0) + R*r) * h&lt;/font&gt;&lt;/div&gt;" style="rounded=0;whiteSpace=wrap;html=1;" vertex="1" parent="WIyWlLk6GJQsqaUBKTNV-1">
          <mxGeometry x="290" y="570" width="220" height="60" as="geometry" />
        </mxCell>
        <mxCell id="Br24ICafhy1wDNoyXPe8-26" value="" style="edgeStyle=orthogonalEdgeStyle;rounded=0;orthogonalLoop=1;jettySize=auto;html=1;" edge="1" parent="WIyWlLk6GJQsqaUBKTNV-1" source="Br24ICafhy1wDNoyXPe8-24" target="Br24ICafhy1wDNoyXPe8-15">
          <mxGeometry relative="1" as="geometry" />
        </mxCell>
        <mxCell id="Br24ICafhy1wDNoyXPe8-24" value="Output: l, S, V" style="shape=parallelogram;perimeter=parallelogramPerimeter;whiteSpace=wrap;html=1;fixedSize=1;" vertex="1" parent="WIyWlLk6GJQsqaUBKTNV-1">
          <mxGeometry x="335" y="680" width="130" height="60" as="geometry" />
        </mxCell>
      </root>
    </mxGraphModel>
  </diagram>
</mxfile>
